<svg xmlns="http://www.w3.org/2000/svg" xmlns:xlink="http://www.w3.org/1999/xlink" width="12" height="15"><defs><path id="A" d="M.75.067h8.5v5.7H.75z"/></defs><g fill="none" fill-rule="evenodd"><path fill="#6a6a6a" d="M10 14.933H2a2 2 0 0 1-2-2v-6a2 2 0 0 1 2-2h8a2 2 0 0 1 2 2v6a2 2 0 0 1-2 2"/><g fill="#fff"><path d="M7.5 8.934a1.5 1.5 0 1 1-3 0 1.5 1.5 0 0 1 3 0"/><path d="M6 12.933a.75.75 0 0 1-.75-.75v-3.5a.75.75 0 0 1 1.5 0v3.5a.75.75 0 0 1-.75.75"/></g><g transform="translate(1 -.067)"><mask id="B" fill="#fff"><use xlink:href="#A"/></mask><path fill="#6a6a6a" d="M9.25 5.767h-1.5v-1.45A2.753 2.753 0 0 0 5 1.567a2.753 2.753 0 0 0-2.75 2.75v1.45H.75v-1.45A4.255 4.255 0 0 1 5 .067a4.255 4.255 0 0 1 4.25 4.25v1.45z" mask="url(#B)"/></g></g></svg>