<svg width="56" height="56" viewBox="0 0 56 56" fill="none" xmlns="http://www.w3.org/2000/svg"><rect width="56" height="56" rx="28" fill="#C4C4C4"/><path d="M32.395 25.285a7.124 7.124 0 1 0-8.82 0 13.5 13.5 0 0 0-8.82 12.975v.285a2.462 2.462 0 0 0 2.55 2.55h21.33a2.46 2.46 0 0 0 2.55-2.55c0-6.645-3.405-11.55-8.79-13.26zM28 14.875a4.875 4.875 0 1 1-4.905 4.875A4.89 4.89 0 0 1 28 14.875zm10.665 24h-21.36c-.24 0-.3 0-.3-.3v-.285c0-5.535 3.855-11.415 10.995-11.415 6.645 0 10.935 4.59 10.935 11.7 0 .24-.075.3-.3.3h.03z" fill="#fff"/></svg>