<svg width="19" height="19" viewBox="0 0 19 19" fill="none" xmlns="http://www.w3.org/2000/svg"><path d="M15.2799 12.85C14.8185 12.8486 14.3635 12.9577 13.9529 13.1683C13.5424 13.3788 13.1882 13.6845 12.9199 14.06L6.22993 10.53C6.19675 10.5344 6.16312 10.5344 6.12994 10.53C6.19392 10.302 6.22755 10.0667 6.22993 9.82995C6.23136 9.54811 6.18746 9.26787 6.09994 8.99995H6.18993L13.1899 5.79995C13.4522 6.10742 13.7769 6.35559 14.1424 6.52799C14.5079 6.7004 14.9059 6.79311 15.3099 6.79995C15.8941 6.78989 16.4621 6.60659 16.942 6.27329C17.4218 5.94 17.7919 5.47172 18.0053 4.92783C18.2187 4.38394 18.2658 3.78893 18.1406 3.21825C18.0154 2.64757 17.7236 2.12691 17.3021 1.7223C16.8806 1.31769 16.3485 1.04734 15.7732 0.945526C15.1979 0.843717 14.6053 0.915033 14.0705 1.15043C13.5358 1.38584 13.083 1.77472 12.7696 2.26778C12.4561 2.76084 12.2962 3.33586 12.3099 3.91995C12.3302 4.12261 12.367 4.32327 12.4199 4.51995L5.56993 7.60995C5.50438 7.64503 5.44384 7.68876 5.38994 7.73995C4.9767 7.31679 4.44581 7.02761 3.86617 6.90996C3.28653 6.7923 2.68491 6.8516 2.13939 7.08016C1.59387 7.30871 1.12965 7.69597 0.806988 8.19167C0.484324 8.68737 0.318115 9.26861 0.329935 9.85995C0.360946 10.6346 0.690656 11.3672 1.24994 11.9041C1.80922 12.441 2.55465 12.7406 3.32994 12.74C3.73979 12.7331 4.14368 12.6405 4.51566 12.4683C4.88764 12.2961 5.21951 12.048 5.48993 11.74C5.51801 11.7657 5.54811 11.7891 5.57994 11.81L12.4199 15.42C12.4096 15.5497 12.4096 15.6802 12.4199 15.81C12.4509 16.5846 12.7807 17.3172 13.3399 17.8541C13.8992 18.391 14.6446 18.6906 15.4199 18.69C15.8211 18.7133 16.2228 18.6545 16.6005 18.5171C16.9781 18.3797 17.3237 18.1665 17.616 17.8908C17.9083 17.615 18.1412 17.2824 18.3003 16.9134C18.4595 16.5444 18.5416 16.1468 18.5416 15.745C18.5416 15.3431 18.4595 14.9455 18.3003 14.5765C18.1412 14.2075 17.9083 13.8749 17.616 13.5991C17.3237 13.3234 16.9781 13.1103 16.6005 12.9728C16.2228 12.8354 15.8211 12.7766 15.4199 12.8L15.2799 12.85ZM15.2799 2.34995C15.4798 2.33331 15.6809 2.35832 15.8707 2.42338C16.0604 2.48844 16.2345 2.59216 16.3821 2.72796C16.5297 2.86376 16.6475 3.02871 16.7281 3.21237C16.8086 3.39602 16.8502 3.5944 16.8502 3.79495C16.8502 3.99551 16.8086 4.19389 16.7281 4.37754C16.6475 4.5612 16.5297 4.72614 16.3821 4.86195C16.2345 4.99775 16.0604 5.10147 15.8707 5.16653C15.6809 5.23159 15.4798 5.2566 15.2799 5.23995C14.9025 5.22306 14.5449 5.06621 14.2768 4.79999C14.0088 4.53377 13.8494 4.17726 13.8299 3.79995C13.8326 3.4162 13.9862 3.04891 14.2575 2.77754C14.5289 2.50618 14.8962 2.35257 15.2799 2.34995ZM3.27994 11.24C2.90251 11.2231 2.5449 11.0662 2.27683 10.8C2.00876 10.5338 1.84944 10.1773 1.82994 9.79995C1.82795 9.51275 1.91131 9.23143 2.06943 8.99167C2.22755 8.75191 2.45331 8.5645 2.71808 8.45322C2.98285 8.34194 3.27471 8.31179 3.55664 8.36661C3.83856 8.42142 4.09786 8.55873 4.30165 8.76111C4.50544 8.96349 4.64454 9.22183 4.7013 9.50338C4.75806 9.78492 4.72994 10.077 4.62049 10.3425C4.51104 10.608 4.3252 10.8351 4.08654 10.9949C3.84788 11.1546 3.56714 11.2399 3.27994 11.24ZM15.2799 17.24C14.9025 17.2231 14.5449 17.0662 14.2768 16.8C14.0088 16.5338 13.8494 16.1773 13.8299 15.8C13.828 15.5128 13.9113 15.2314 14.0694 14.9917C14.2275 14.7519 14.4533 14.5645 14.7181 14.4532C14.9829 14.3419 15.2747 14.3118 15.5566 14.3666C15.8386 14.4214 16.0979 14.5587 16.3017 14.7611C16.5054 14.9635 16.6445 15.2218 16.7013 15.5034C16.7581 15.7849 16.7299 16.077 16.6205 16.3425C16.511 16.608 16.3252 16.8351 16.0865 16.9949C15.8479 17.1546 15.5671 17.2399 15.2799 17.24Z" fill="#00AA5B"/></svg>
